<svg width="64" height="64" viewBox="0 0 64 64" fill="none" xmlns="http://www.w3.org/2000/svg">
  <!-- Certificado base -->
  <rect x="8" y="12" width="40" height="32" rx="2" fill="#247BA0" stroke="#1e293b" stroke-width="1"/>
  
  <!-- Bordas decorativas -->
  <rect x="10" y="14" width="36" height="28" rx="1" fill="none" stroke="#ffffff" stroke-width="0.5"/>
  <rect x="12" y="16" width="32" height="24" rx="1" fill="none" stroke="#ffffff" stroke-width="0.5"/>
  
  <!-- Texto do certificado (linhas) -->
  <rect x="16" y="20" width="24" height="2" rx="1" fill="#ffffff"/>
  <rect x="16" y="24" width="20" height="1.5" rx="0.75" fill="#ffffff" opacity="0.8"/>
  <rect x="16" y="27" width="18" height="1.5" rx="0.75" fill="#ffffff" opacity="0.8"/>
  <rect x="16" y="30" width="22" height="1.5" rx="0.75" fill="#ffffff" opacity="0.8"/>
  
  <!-- Selo/medalha -->
  <circle cx="40" cy="24" r="6" fill="#FFD700" stroke="#FFA500" stroke-width="1"/>
  <circle cx="40" cy="24" r="4" fill="none" stroke="#FFA500" stroke-width="0.5"/>
  <polygon points="40,21 41,23 43,23 41.5,24.5 42,26.5 40,25.5 38,26.5 38.5,24.5 37,23 39,23" fill="#FFA500"/>
  
  <!-- Fitas -->
  <path d="M34 36 L40 42 L46 36 L44 44 L40 46 L36 44 Z" fill="#DC2626"/>
  <path d="M34 36 L40 42 L46 36 L44 38 L40 40 L36 38 Z" fill="#EF4444"/>
  
  <!-- Sombra sutil -->
  <rect x="9" y="13" width="40" height="32" rx="2" fill="none" stroke="#0000001a" stroke-width="0.5"/>
</svg>
